# xmcd
#
# Track frame offsets:
#	150
#	13940
#	32335
#	50060
#	63847
#	78555
#	96035
#	114022
#	140575
#	153927
#	169430
#	187832
#	207557
#	227242
#	250465
#	267640
#
# Disc length: 3812 seconds
#
# Revision: 0
# Processed by: cddbd v1.4b42PL1 Copyright (c) Steve Scherf et al.
# Submitted via: EasyCDDAExtractor 4.5.0.2
#
DISCID=de0ee210
DTITLE=Cilla Black - Love Songs
DYEAR=1987
DGENRE=blues
TTITLE0=baby don't change your mind  Van Mac Coy
TTITLE1=sometimes when we touch
TTITLE2=just the way you are
TTITLE3=talking in your sleep
TTITLE4=you don't bring me flowers
TTITLE5=how deep is your love
TTITLE6=bright eyes
TTITLE7=don't cry for me Argentina
TTITLE8=when will I see you again
TTITLE9=you need me
TTITLE10=if you leave me know
TTITLE11=when I need you
TTITLE12=knowing me knowing you
TTITLE13=still
TTITLE14=when a child is born
TTITLE15=do that to me one more time
EXTD=
EXTT0=
EXTT1=
EXTT2=
EXTT3=
EXTT4=
EXTT5=
EXTT6=
EXTT7=
EXTT8=
EXTT9=
EXTT10=
EXTT11=
EXTT12=
EXTT13=
EXTT14=
EXTT15=
PLAYORDER=
